<?xml version="1.0" standalone="no"?>
<!DOCTYPE svg PUBLIC "-//W3C//DTD SVG 20010904//EN"
 "http://www.w3.org/TR/2001/REC-SVG-20010904/DTD/svg10.dtd">
<svg version="1.0" xmlns="http://www.w3.org/2000/svg"
 width="200.000000pt" height="200.000000pt" viewBox="0 0 200.000000 200.000000"
 preserveAspectRatio="xMidYMid meet">
<metadata>
Created by potrace 1.15, written by Peter Selinger 2001-2017
</metadata>
<g transform="translate(0.000000,200.000000) scale(0.100000,-0.100000)"
fill="#000000" stroke="none">
<path d="M0 1000 l0 -1000 1000 0 1000 0 0 1000 0 1000 -1000 0 -1000 0 0
-1000z m1176 830 c24 -8 37 -7 60 5 16 8 37 15 47 15 29 0 79 -56 75 -83 -2
-18 15 -43 64 -96 40 -43 85 -106 112 -159 26 -48 60 -108 77 -134 118 -184
109 -419 -26 -628 -149 -232 -401 -345 -662 -297 -49 9 -115 21 -148 27 -106
18 -179 62 -289 174 -111 114 -169 196 -192 270 -24 78 -20 369 6 471 36 141
124 266 233 329 69 41 171 72 255 80 41 3 78 9 83 12 49 30 234 39 305 14z
m-962 -1490 c16 -6 26 -17 26 -30 0 -18 -5 -20 -42 -15 l-43 6 25 -18 c14 -10
37 -29 51 -43 25 -24 27 -25 62 -10 20 8 37 19 37 24 0 9 -31 4 -63 -9 -14 -6
-16 -4 -11 11 15 44 70 58 112 28 16 -11 22 -26 24 -57 1 -39 2 -38 7 13 l6
55 63 2 c55 1 64 -1 78 -22 l15 -23 24 24 c33 33 105 31 105 -3 0 -11 6 -10
26 6 35 27 76 27 110 -2 l27 -23 24 24 c20 20 31 23 63 19 36 -5 39 -3 42 22
2 20 9 27 31 29 24 3 27 0 27 -27 0 -28 2 -29 34 -24 29 4 37 1 51 -20 l16
-25 24 24 c34 34 102 28 127 -10 15 -22 8 -76 -12 -96 -31 -31 -108 -23 -132
14 -5 6 -8 1 -8 -11 0 -19 -6 -23 -30 -23 -29 0 -30 1 -30 51 0 43 -3 50 -17
47 -14 -2 -19 -15 -21 -50 l-3 -47 -70 0 c-60 0 -74 3 -94 23 l-22 22 -27 -23
c-34 -29 -88 -31 -115 -4 -19 19 -19 19 -24 0 -8 -29 -71 -26 -102 6 l-25 24
0 -24 c0 -21 -5 -25 -30 -25 -29 0 -30 1 -30 51 0 43 -3 50 -17 47 -14 -2 -19
-15 -21 -50 l-3 -46 -95 0 c-79 1 -97 4 -106 18 -10 16 -12 16 -29 -1 -35 -35
-129 -19 -129 21 0 18 5 19 40 14 27 -4 40 -3 40 5 0 6 -4 11 -9 11 -19 0 -71
52 -71 71 0 46 57 71 114 49z m1286 -65 l0 -75 41 0 c26 0 50 7 66 20 14 11
32 20 39 20 8 0 14 5 14 10 0 13 -26 13 -51 0 -16 -9 -19 -7 -19 10 0 36 84
54 114 24 9 -9 16 -32 16 -55 0 -21 5 -39 10 -39 6 0 10 33 10 80 0 79 0 80
25 80 21 0 25 -5 25 -28 0 -26 3 -28 28 -24 41 6 76 -26 76 -71 0 -20 -8 -44
-17 -55 -16 -18 -34 -19 -227 -20 l-210 -1 0 99 0 100 30 0 30 0 0 -75z m-90
-50 c0 -23 -4 -25 -45 -25 -41 0 -45 2 -45 25 0 23 4 25 45 25 41 0 45 -2 45
-25z"/>
<path d="M945 1811 c-28 -7 -27 -8 20 -15 28 -4 90 -21 138 -37 49 -16 90 -29
93 -29 2 0 4 15 4 34 0 31 -3 34 -44 45 -48 12 -162 13 -211 2z"/>
<path d="M1250 1806 c0 -6 72 -48 75 -44 2 2 -1 13 -6 26 -6 16 -16 22 -39 22
-16 0 -30 -2 -30 -4z"/>
<path d="M696 1764 c-91 -22 -189 -79 -251 -145 -79 -86 -121 -183 -140 -329
-6 -43 -3 -40 48 56 92 173 191 283 344 383 42 28 73 51 68 50 -6 0 -36 -7
-69 -15z"/>
<path d="M772 1746 c-184 -101 -338 -269 -419 -456 -46 -107 -50 -148 -23
-254 38 -153 104 -293 162 -341 33 -28 127 -79 134 -72 2 2 -18 31 -45 64 -64
81 -105 153 -132 237 -17 51 -20 71 -11 74 7 2 12 12 12 21 0 10 12 45 28 78
21 46 47 78 112 138 115 106 178 155 199 155 10 0 30 -13 45 -29 47 -49 36
-66 -142 -233 -83 -78 -100 -90 -162 -109 -84 -25 -85 -29 -36 -141 59 -137
195 -298 249 -298 14 0 40 -3 58 -6 l34 -6 -47 31 c-68 47 -110 118 -112 188
-1 53 1 58 29 74 70 42 353 51 453 15 l42 -15 0 334 0 335 -38 19 c-79 40
-149 53 -263 49 -80 -2 -109 0 -109 9 0 15 115 27 196 20 53 -5 108 -22 202
-64 9 -4 12 13 12 65 l0 71 -57 21 c-88 33 -161 50 -238 56 -66 5 -74 3 -133
-30z"/>
<path d="M1230 1746 c0 -32 5 -38 78 -81 42 -26 103 -70 136 -98 51 -44 56
-47 43 -21 -31 59 -114 149 -175 191 -35 24 -67 43 -73 43 -5 0 -9 -15 -9 -34z"/>
<path d="M1230 1610 l0 -72 50 -45 c134 -120 204 -353 161 -533 -43 -178 -196
-334 -386 -393 -53 -16 -96 -21 -176 -22 -114 0 -118 -5 -27 -40 44 -16 53
-16 140 -2 290 49 517 243 583 497 22 84 16 286 -11 375 -26 88 -129 188 -286
279 l-48 28 0 -72z"/>
<path d="M1228 1113 c-2 -251 -7 -388 -13 -387 -5 1 -24 -21 -42 -48 l-32 -49
42 23 c62 34 160 137 191 200 93 189 67 413 -66 574 -84 101 -77 126 -80 -313z"/>
<path d="M766 1357 c-16 -11 -16 -17 -6 -34 21 -32 49 -46 66 -32 20 16 17 32
-9 57 -27 26 -28 26 -51 9z"/>
<path d="M1608 1295 c12 -86 7 -246 -11 -312 -30 -113 -75 -191 -162 -278
-111 -111 -222 -174 -380 -215 l-70 -19 75 0 c153 -2 288 58 411 179 159 158
228 362 185 551 -9 41 -26 90 -36 109 l-19 35 7 -50z"/>
<path d="M720 1322 c0 -4 16 -23 35 -42 42 -41 46 -28 5 18 -30 32 -40 39 -40
24z"/>
<path d="M602 1222 l-83 -77 24 -23 c21 -20 27 -21 34 -9 4 8 43 45 86 82 74
65 77 69 61 86 -10 11 -22 19 -28 19 -6 -1 -48 -36 -94 -78z m108 50 c0 -14
-147 -142 -154 -134 -7 6 132 141 147 142 4 0 7 -4 7 -8z"/>
<path d="M663 1172 c-87 -73 -105 -97 -71 -97 22 0 183 154 172 165 -6 6 -43
-19 -101 -68z"/>
<path d="M498 1096 c-17 -39 24 -71 61 -47 11 7 10 14 -8 40 -27 37 -38 39
-53 7z"/>
<path d="M470 1035 c0 -9 6 -12 15 -9 8 4 12 10 9 15 -8 14 -24 10 -24 -6z"/>
<path d="M311 978 c-1 -26 28 -106 51 -141 11 -18 17 -23 13 -12 -5 11 -21 54
-36 95 -15 41 -28 67 -28 58z"/>
<path d="M801 855 c-79 -14 -103 -27 -84 -46 14 -14 35 -14 148 0 64 7 119 7
192 -1 100 -10 133 -8 133 10 0 15 -49 31 -125 42 -92 13 -173 11 -264 -5z"/>
<path d="M710 761 c0 -5 18 -16 40 -22 45 -14 53 -36 14 -41 l-25 -3 33 -34
c98 -100 262 -95 354 13 18 21 37 51 43 66 9 28 9 28 -22 18 -83 -25 -349 -20
-422 8 -8 4 -15 1 -15 -5z"/>
<path d="M578 597 c24 -26 135 -80 187 -91 26 -6 24 -3 -20 27 -27 19 -68 40
-90 47 -22 7 -53 19 -70 28 l-30 15 23 -26z"/>
<path d="M754 245 c-9 -22 0 -50 16 -50 21 0 26 51 5 59 -9 3 -18 0 -21 -9z"/>
<path d="M1212 251 c-16 -10 -12 -53 5 -58 6 -2 16 4 22 15 13 24 -7 56 -27
43z"/>
<path d="M624 235 c-9 -22 4 -35 37 -35 24 0 29 4 29 25 0 21 -5 25 -30 25
-18 0 -33 -6 -36 -15z"/>
<path d="M914 235 c-9 -22 4 -35 37 -35 24 0 29 4 29 25 0 21 -5 25 -30 25
-18 0 -33 -6 -36 -15z"/>
<path d="M310 194 c0 -8 5 -12 10 -9 6 3 10 10 10 16 0 5 -4 9 -10 9 -5 0 -10
-7 -10 -16z"/>
<path d="M1797 254 c-11 -11 -8 -52 4 -60 6 -3 18 1 27 10 13 12 14 21 6 33
-12 20 -27 26 -37 17z"/>
<path d="M1651 206 c-8 -9 -11 -19 -7 -23 9 -9 29 13 24 27 -2 8 -8 7 -17 -4z"/>
</g>
</svg>
